<?xml version="1.0" encoding="utf-8"?><svg xmlns="http://www.w3.org/2000/svg" xmlns:xlink="http://www.w3.org/1999/xlink"><symbol viewBox="0 0 18 18" id="Q" xmlns="http://www.w3.org/2000/svg"><path fill-rule="evenodd" clip-rule="evenodd" d="M12.605 15.233l-1.034-.85-.053.04c-.878.666-1.96 1.003-3.22 1.003-1.36 0-2.57-.45-3.5-1.303-1.288-1.18-1.288-2.477-1.287-4.83v-.2c0-2.354 0-3.65 1.286-4.83C5.741 3.398 6.92 2.96 8.3 2.96c3.073 0 4.518 1.957 4.847 3.792 0 .003.068.298.102.537.03.204.039.451.041.576h-1.92c0-.13-.005-.394-.04-.644a8.204 8.204 0 0 0-.095-.506C10.873 5.28 9.83 4.49 8.299 4.49c-.8 0-1.55.289-2.058.792-.684.681-.842 1.412-.842 3.911 0 2.513.158 3.247.842 3.928.497.493 1.247.775 2.058.775.7 0 1.342-.19 1.856-.547l.087-.06-1.172-.965 1.106-1.264 1.001.824.028-.135c.046-.232.07-.48.07-.76v-.454h1.888v.053c0 1.068-.144 1.829-.465 2.467l-.029.056 1.042.857-1.106 1.265zM8.61.693a8.5 8.5 0 1 0 0 17 8.5 8.5 0 0 0 0-17z"/></symbol><symbol viewBox="0 0 20 20" id="fs" xmlns="http://www.w3.org/2000/svg"><path fill-rule="evenodd" clip-rule="evenodd" d="M10.396.139C5.146.139.89 4.523.89 9.932c0 5.409 4.256 9.793 9.505 9.793 5.249 0 9.505-4.384 9.505-9.793 0-5.41-4.256-9.793-9.505-9.793zm2.25 6.767h-1.43c-.168 0-.356.228-.356.536v1.062h1.786v1.516H10.86v4.55H9.173v-4.55h-1.53V8.504h1.53v-.891c0-1.28.86-2.32 2.044-2.32h1.429v1.613z"/></symbol><symbol viewBox="0 0 18 18" id="in" xmlns="http://www.w3.org/2000/svg"><path fill-rule="evenodd" clip-rule="evenodd" d="M14.135 9.117c0 2.93-2.306 5.304-5.148 5.304-2.844 0-5.148-2.375-5.148-5.304 0-.35.033-.69.096-1.02H.473v7.051c0 1.515 1.19 2.742 2.66 2.742h11.709c1.469 0 2.66-1.227 2.66-2.742V8.097H14.04c.06.33.095.67.095 1.02zM14.84.344H3.132C1.66.344.47 1.571.47 3.084v2.972h4.31c.933-1.357 2.468-2.244 4.206-2.244 1.736 0 3.27.886 4.204 2.244h4.31V3.085c0-1.513-1.192-2.741-2.661-2.741zm1.3 3.387c0 .27-.212.489-.474.489H14.24a.484.484 0 0 1-.475-.49V2.262c0-.27.214-.49.475-.49h1.426c.26 0 .475.22.475.49v1.47zm-3.986 5.386c0-1.803-1.418-3.265-3.168-3.265-1.75 0-3.168 1.462-3.168 3.265 0 1.803 1.418 3.264 3.168 3.264 1.75 0 3.168-1.46 3.168-3.264z"/></symbol><symbol viewBox="0 0 15 15" id="time" xmlns="http://www.w3.org/2000/svg"><path fill-rule="evenodd" clip-rule="evenodd" d="M7.5 15a7.5 7.5 0 1 1 0-15 7.5 7.5 0 0 1 0 15zm0-1.364a6.136 6.136 0 1 0 0-12.273 6.136 6.136 0 0 0 0 12.273zm0-10.909c.377 0 .682.306.682.682v3.809l1.846 1.845a.682.682 0 0 1-.965.965L7.018 7.982a.682.682 0 0 1-.2-.482V3.41c0-.377.305-.683.682-.683z"/></symbol><symbol viewBox="0 0 20 20" id="vk" xmlns="http://www.w3.org/2000/svg"><path fill-rule="evenodd" clip-rule="evenodd" d="M11.44 11.118c-.305-.183-.729-.183-1.073-.183h-1.13v2.4h1.038c.384 0 .873.027 1.204-.212.304-.21.477-.624.477-1.018 0-.367-.212-.804-.516-.987zm-.426-2.05c.252-.196.384-.548.384-.873 0-.352-.159-.69-.45-.872-.304-.184-.86-.142-1.217-.142h-.493v2.113h.651c.371 0 .807.028 1.125-.225zM16.58.325H4.252C2.406.324.91 1.865.91 3.767v12.7c0 1.902 1.496 3.443 3.342 3.443H16.58c1.845 0 3.342-1.541 3.342-3.444V3.768c0-1.902-1.497-3.443-3.342-3.443zm-5.647 14.798H7.048V5.465h4.243c1.23 0 2.363.806 2.363 2.227 0 1.099-.596 1.85-1.354 2.084v.028c1.125.239 1.928.87 1.928 2.387.001 1.408-.928 2.931-3.296 2.931z"/></symbol></svg>